# xmcd CD database file
#
# Track frame offsets:
#	150
#	18326
#	38616
#	58371
#	93515
#	111116
#	140866
#	157236
#	185786
#	217855
#
# Disc length: 3143 seconds
#
# Revision: 0
# Processed by: cddbd v1.5.1PL2 Copyright (c) Steve Scherf et al.
# Submitted via: CDex 1.51
#
DISCID=930c450a
DTITLE=Stan Bann Big Band - Good Intentions
DYEAR=1997
DGENRE=Jazz
TTITLE0=Good Intentions
TTITLE1=Moonlight In Vermont
TTITLE2=Facade
TTITLE3=Love Always
TTITLE4=Find The Corner
TTITLE5=This Masquerade
TTITLE6=You And The Night And The Music
TTITLE7=Change Of Heart
TTITLE8=Cleanhead's Phunky Blues
TTITLE9=Rainsilk
EXTD=YEAR: 1997
EXTT0=
EXTT1=
EXTT2=
EXTT3=
EXTT4=
EXTT5=
EXTT6=
EXTT7=
EXTT8=
EXTT9=
PLAYORDER=
